<mxfile host="65bd71144e">
    <diagram id="2046acFo5O6Mica_T_tD" name="Page-1">
        <mxGraphModel dx="1600" dy="1302" grid="1" gridSize="10" guides="1" tooltips="1" connect="1" arrows="1" fold="1" page="1" pageScale="1" pageWidth="850" pageHeight="1100" math="0" shadow="0">
            <root>
                <mxCell id="0"/>
                <mxCell id="1" parent="0"/>
                <mxCell id="2" value="laser projector" style="rounded=0;whiteSpace=wrap;html=1;align=left;verticalAlign=top;" parent="1" vertex="1">
                    <mxGeometry x="320" y="179" width="900" height="370" as="geometry"/>
                </mxCell>
                <mxCell id="43" style="edgeStyle=elbowEdgeStyle;html=1;startArrow=none;startFill=0;endArrow=none;endFill=0;strokeColor=#CC0000;strokeWidth=3;" edge="1" parent="1" target="8">
                    <mxGeometry relative="1" as="geometry">
                        <mxPoint x="460" y="599" as="sourcePoint"/>
                        <mxPoint x="840" y="389" as="targetPoint"/>
                        <Array as="points">
                            <mxPoint x="840" y="499"/>
                        </Array>
                    </mxGeometry>
                </mxCell>
                <mxCell id="33" value="laser controller (raspbery pi 4)" style="rounded=0;whiteSpace=wrap;html=1;fillColor=#fad9d5;strokeColor=#ae4132;align=left;verticalAlign=top;" vertex="1" parent="1">
                    <mxGeometry x="340" y="209" width="410" height="330" as="geometry"/>
                </mxCell>
                <mxCell id="3" value="Laser Diode" style="rounded=0;whiteSpace=wrap;html=1;fillColor=#ffff88;strokeColor=#36393d;" vertex="1" parent="1">
                    <mxGeometry x="915" y="319" width="120" height="60" as="geometry"/>
                </mxCell>
                <mxCell id="4" value="Mirror(s)" style="rounded=0;whiteSpace=wrap;html=1;fillColor=#ffff88;strokeColor=#36393d;" vertex="1" parent="1">
                    <mxGeometry x="1080" y="319" width="120" height="60" as="geometry"/>
                </mxCell>
                <mxCell id="19" value="" style="edgeStyle=none;html=1;startArrow=block;startFill=1;endArrow=none;endFill=0;" edge="1" parent="1">
                    <mxGeometry relative="1" as="geometry">
                        <mxPoint x="915" y="261" as="sourcePoint"/>
                        <mxPoint x="890" y="261" as="targetPoint"/>
                    </mxGeometry>
                </mxCell>
                <mxCell id="20" value="" style="edgeStyle=none;html=1;startArrow=block;startFill=1;endArrow=none;endFill=0;" edge="1" parent="1">
                    <mxGeometry relative="1" as="geometry">
                        <mxPoint x="915" y="261" as="sourcePoint"/>
                        <mxPoint x="890" y="261" as="targetPoint"/>
                    </mxGeometry>
                </mxCell>
                <mxCell id="21" value="" style="edgeStyle=none;html=1;startArrow=block;startFill=1;endArrow=none;endFill=0;" edge="1" parent="1">
                    <mxGeometry relative="1" as="geometry">
                        <mxPoint x="915" y="261" as="sourcePoint"/>
                        <mxPoint x="890" y="261" as="targetPoint"/>
                    </mxGeometry>
                </mxCell>
                <mxCell id="25" value="" style="edgeStyle=elbowEdgeStyle;html=1;startArrow=block;startFill=1;endArrow=none;endFill=0;" edge="1" parent="1">
                    <mxGeometry relative="1" as="geometry">
                        <mxPoint x="915" y="261" as="sourcePoint"/>
                        <mxPoint x="890" y="261" as="targetPoint"/>
                    </mxGeometry>
                </mxCell>
                <mxCell id="5" value="Mirror Motor(s)" style="rounded=0;whiteSpace=wrap;html=1;fillColor=#ffff88;strokeColor=#36393d;" vertex="1" parent="1">
                    <mxGeometry x="915" y="239" width="120" height="60" as="geometry"/>
                </mxCell>
                <mxCell id="15" style="edgeStyle=none;html=1;exitX=0;exitY=0.5;exitDx=0;exitDy=0;entryX=0.892;entryY=0;entryDx=0;entryDy=0;entryPerimeter=0;startArrow=block;startFill=1;endArrow=block;endFill=1;" edge="1" parent="1" source="6" target="10">
                    <mxGeometry relative="1" as="geometry"/>
                </mxCell>
                <mxCell id="6" value="Motor Controller" style="rounded=0;whiteSpace=wrap;html=1;" vertex="1" parent="1">
                    <mxGeometry x="625" y="239" width="120" height="60" as="geometry"/>
                </mxCell>
                <mxCell id="7" value="Laser Driver" style="rounded=0;whiteSpace=wrap;html=1;fillColor=#ffff88;strokeColor=#36393d;" vertex="1" parent="1">
                    <mxGeometry x="770" y="319" width="120" height="60" as="geometry"/>
                </mxCell>
                <mxCell id="8" value="Motor Driver" style="rounded=0;whiteSpace=wrap;html=1;fillColor=#ffff88;strokeColor=#36393d;" vertex="1" parent="1">
                    <mxGeometry x="770" y="239" width="120" height="60" as="geometry"/>
                </mxCell>
                <mxCell id="9" value="Laser Controller" style="rounded=0;whiteSpace=wrap;html=1;" vertex="1" parent="1">
                    <mxGeometry x="625" y="319" width="120" height="60" as="geometry"/>
                </mxCell>
                <mxCell id="10" value="Command Sequencer" style="rounded=0;whiteSpace=wrap;html=1;flipV=1;flipH=0;direction=south;" vertex="1" parent="1">
                    <mxGeometry x="540" y="239" width="60" height="280" as="geometry"/>
                </mxCell>
                <mxCell id="36" value="" style="edgeStyle=elbowEdgeStyle;html=1;startArrow=block;startFill=1;endArrow=none;endFill=0;" edge="1" parent="1" source="11" target="12">
                    <mxGeometry relative="1" as="geometry"/>
                </mxCell>
                <mxCell id="37" value="" style="edgeStyle=elbowEdgeStyle;html=1;startArrow=block;startFill=1;endArrow=none;endFill=0;" edge="1" parent="1" source="11" target="12">
                    <mxGeometry relative="1" as="geometry"/>
                </mxCell>
                <mxCell id="11" value="Image Processor" style="rounded=0;whiteSpace=wrap;html=1;flipV=1;flipH=0;direction=south;" vertex="1" parent="1">
                    <mxGeometry x="450" y="239" width="60" height="280" as="geometry"/>
                </mxCell>
                <mxCell id="12" value="Transmission Transceiver" style="rounded=0;whiteSpace=wrap;html=1;flipV=1;flipH=0;direction=south;" vertex="1" parent="1">
                    <mxGeometry x="360" y="239" width="60" height="280" as="geometry"/>
                </mxCell>
                <mxCell id="17" style="edgeStyle=none;html=1;exitX=0;exitY=0.5;exitDx=0;exitDy=0;entryX=0.892;entryY=0;entryDx=0;entryDy=0;entryPerimeter=0;startArrow=block;startFill=1;endArrow=none;endFill=0;" edge="1" parent="1">
                    <mxGeometry relative="1" as="geometry">
                        <mxPoint x="770" y="268.8" as="sourcePoint"/>
                        <mxPoint x="745" y="269.04000000000025" as="targetPoint"/>
                    </mxGeometry>
                </mxCell>
                <mxCell id="18" style="edgeStyle=none;html=1;exitX=0;exitY=0.5;exitDx=0;exitDy=0;entryX=0.892;entryY=0;entryDx=0;entryDy=0;entryPerimeter=0;startArrow=block;startFill=1;endArrow=block;endFill=1;" edge="1" parent="1">
                    <mxGeometry relative="1" as="geometry">
                        <mxPoint x="915" y="260.79999999999995" as="sourcePoint"/>
                        <mxPoint x="890" y="261.0400000000002" as="targetPoint"/>
                    </mxGeometry>
                </mxCell>
                <mxCell id="22" style="edgeStyle=elbowEdgeStyle;html=1;exitX=0;exitY=0.25;exitDx=0;exitDy=0;entryX=0.892;entryY=0;entryDx=0;entryDy=0;entryPerimeter=0;startArrow=block;startFill=1;endArrow=block;endFill=1;" edge="1" parent="1" source="4">
                    <mxGeometry relative="1" as="geometry">
                        <mxPoint x="1060" y="268.79999999999995" as="sourcePoint"/>
                        <mxPoint x="1035" y="269.0400000000002" as="targetPoint"/>
                    </mxGeometry>
                </mxCell>
                <mxCell id="23" style="edgeStyle=none;html=1;exitX=0;exitY=0.671;exitDx=0;exitDy=0;entryX=0.892;entryY=0;entryDx=0;entryDy=0;entryPerimeter=0;startArrow=block;startFill=1;endArrow=none;endFill=0;exitPerimeter=0;" edge="1" parent="1" source="4">
                    <mxGeometry relative="1" as="geometry">
                        <mxPoint x="1060" y="358.99999999999994" as="sourcePoint"/>
                        <mxPoint x="1035" y="359.2400000000002" as="targetPoint"/>
                    </mxGeometry>
                </mxCell>
                <mxCell id="26" style="edgeStyle=none;html=1;exitX=0;exitY=0.5;exitDx=0;exitDy=0;entryX=0.892;entryY=0;entryDx=0;entryDy=0;entryPerimeter=0;startArrow=block;startFill=1;endArrow=block;endFill=1;" edge="1" parent="1">
                    <mxGeometry relative="1" as="geometry">
                        <mxPoint x="770" y="348.79999999999995" as="sourcePoint"/>
                        <mxPoint x="745" y="349.0400000000002" as="targetPoint"/>
                    </mxGeometry>
                </mxCell>
                <mxCell id="28" style="edgeStyle=none;html=1;exitX=0;exitY=0.5;exitDx=0;exitDy=0;entryX=0.892;entryY=0;entryDx=0;entryDy=0;entryPerimeter=0;startArrow=block;startFill=1;endArrow=block;endFill=1;" edge="1" parent="1">
                    <mxGeometry relative="1" as="geometry">
                        <mxPoint x="625" y="348.79999999999995" as="sourcePoint"/>
                        <mxPoint x="600" y="349.0400000000002" as="targetPoint"/>
                    </mxGeometry>
                </mxCell>
                <mxCell id="29" style="edgeStyle=none;html=1;exitX=0;exitY=0.5;exitDx=0;exitDy=0;entryX=0.5;entryY=0;entryDx=0;entryDy=0;startArrow=block;startFill=1;endArrow=block;endFill=1;" edge="1" parent="1" target="11">
                    <mxGeometry relative="1" as="geometry">
                        <mxPoint x="540" y="378.59999999999997" as="sourcePoint"/>
                        <mxPoint x="515" y="378.8400000000002" as="targetPoint"/>
                    </mxGeometry>
                </mxCell>
                <mxCell id="32" style="edgeStyle=none;html=1;exitX=0;exitY=0.5;exitDx=0;exitDy=0;startArrow=block;startFill=1;endArrow=block;endFill=1;" edge="1" parent="1" target="12">
                    <mxGeometry relative="1" as="geometry">
                        <mxPoint x="450" y="378.59999999999997" as="sourcePoint"/>
                        <mxPoint x="425" y="378.8400000000002" as="targetPoint"/>
                    </mxGeometry>
                </mxCell>
                <mxCell id="38" style="edgeStyle=none;html=1;exitX=0;exitY=0.5;exitDx=0;exitDy=0;entryX=0.892;entryY=0;entryDx=0;entryDy=0;entryPerimeter=0;startArrow=block;startFill=1;endArrow=block;endFill=1;" edge="1" parent="1">
                    <mxGeometry relative="1" as="geometry">
                        <mxPoint x="915" y="340.76" as="sourcePoint"/>
                        <mxPoint x="890" y="341.0000000000002" as="targetPoint"/>
                    </mxGeometry>
                </mxCell>
                <mxCell id="39" value="discrete hardware" style="rounded=0;whiteSpace=wrap;html=1;fillColor=#ffff88;strokeColor=#36393d;" vertex="1" parent="1">
                    <mxGeometry x="120" y="99" width="120" height="20" as="geometry"/>
                </mxCell>
                <mxCell id="41" style="edgeStyle=elbowEdgeStyle;html=1;exitX=0.5;exitY=0;exitDx=0;exitDy=0;startArrow=none;startFill=0;endArrow=none;endFill=0;strokeColor=#CC0000;strokeWidth=3;" edge="1" parent="1" source="40" target="33">
                    <mxGeometry relative="1" as="geometry"/>
                </mxCell>
                <mxCell id="40" value="Power Supply" style="rounded=0;whiteSpace=wrap;html=1;fillColor=#ffff88;strokeColor=#36393d;" vertex="1" parent="1">
                    <mxGeometry x="340" y="559" width="120" height="60" as="geometry"/>
                </mxCell>
                <mxCell id="47" style="edgeStyle=elbowEdgeStyle;html=1;exitX=1;exitY=0.5;exitDx=0;exitDy=0;startArrow=none;startFill=0;endArrow=none;endFill=0;strokeColor=#CC0000;strokeWidth=3;" edge="1" parent="1">
                    <mxGeometry relative="1" as="geometry">
                        <mxPoint x="890" y="360.83" as="sourcePoint"/>
                        <mxPoint x="915" y="360.83" as="targetPoint"/>
                    </mxGeometry>
                </mxCell>
                <mxCell id="48" style="edgeStyle=elbowEdgeStyle;html=1;exitX=1;exitY=0.5;exitDx=0;exitDy=0;startArrow=none;startFill=0;endArrow=none;endFill=0;strokeColor=#CC0000;strokeWidth=3;" edge="1" parent="1">
                    <mxGeometry relative="1" as="geometry">
                        <mxPoint x="890" y="281" as="sourcePoint"/>
                        <mxPoint x="915" y="281" as="targetPoint"/>
                    </mxGeometry>
                </mxCell>
                <mxCell id="49" value="power" style="rounded=0;whiteSpace=wrap;html=1;align=left;spacing=16;" vertex="1" parent="1">
                    <mxGeometry x="120" y="79" width="120" height="20" as="geometry"/>
                </mxCell>
                <mxCell id="50" style="edgeStyle=elbowEdgeStyle;html=1;startArrow=none;startFill=0;endArrow=none;endFill=0;strokeColor=#CC0000;strokeWidth=3;" edge="1" parent="1">
                    <mxGeometry relative="1" as="geometry">
                        <mxPoint x="180" y="88.86" as="sourcePoint"/>
                        <mxPoint x="230" y="88.86" as="targetPoint"/>
                        <Array as="points">
                            <mxPoint x="180" y="88.86"/>
                        </Array>
                    </mxGeometry>
                </mxCell>
                <mxCell id="52" value="cmd" style="rounded=0;whiteSpace=wrap;html=1;align=left;spacing=16;" vertex="1" parent="1">
                    <mxGeometry x="120" y="59" width="120" height="20" as="geometry"/>
                </mxCell>
                <mxCell id="54" style="edgeStyle=none;html=1;startArrow=block;startFill=1;endArrow=block;endFill=1;" edge="1" parent="1">
                    <mxGeometry relative="1" as="geometry">
                        <mxPoint x="230" y="69" as="sourcePoint"/>
                        <mxPoint x="180" y="69" as="targetPoint"/>
                    </mxGeometry>
                </mxCell>
                <mxCell id="55" value="raspberry pi 4" style="rounded=0;whiteSpace=wrap;html=1;fillColor=#fad9d5;strokeColor=#ae4132;" vertex="1" parent="1">
                    <mxGeometry x="120" y="119" width="120" height="20" as="geometry"/>
                </mxCell>
                <mxCell id="56" value="client terminal" style="rounded=0;whiteSpace=wrap;html=1;fillColor=#eeeeee;strokeColor=#36393d;" vertex="1" parent="1">
                    <mxGeometry x="120" y="139" width="120" height="20" as="geometry"/>
                </mxCell>
                <mxCell id="57" value="client terminal" style="rounded=0;whiteSpace=wrap;html=1;fillColor=#eeeeee;strokeColor=#36393d;" vertex="1" parent="1">
                    <mxGeometry x="120" y="289" width="120" height="180" as="geometry"/>
                </mxCell>
                <mxCell id="59" style="edgeStyle=none;html=1;exitX=0;exitY=0.5;exitDx=0;exitDy=0;startArrow=block;startFill=1;endArrow=block;endFill=1;entryX=1;entryY=0.5;entryDx=0;entryDy=0;dashed=1;" edge="1" parent="1" target="57">
                    <mxGeometry relative="1" as="geometry">
                        <mxPoint x="360" y="378.4299999999998" as="sourcePoint"/>
                        <mxPoint x="330" y="378.62999999999994" as="targetPoint"/>
                    </mxGeometry>
                </mxCell>
                <mxCell id="60" value="wireless tx/rx" style="edgeLabel;html=1;align=center;verticalAlign=middle;resizable=0;points=[];" vertex="1" connectable="0" parent="59">
                    <mxGeometry x="0.3919" y="-3" relative="1" as="geometry">
                        <mxPoint x="23" y="3" as="offset"/>
                    </mxGeometry>
                </mxCell>
            </root>
        </mxGraphModel>
    </diagram>
</mxfile>